<mxfile host="app.diagrams.net" agent="Mozilla/5.0 (Windows NT 10.0; Win64; x64) AppleWebKit/537.36 (KHTML, like Gecko) Chrome/138.0.0.0 Safari/537.36" version="28.0.7">
  <diagram name="Page-1" id="yNoIZFDmo-sB0uq-H11A">
    <mxGraphModel dx="2977" dy="1754" grid="1" gridSize="10" guides="1" tooltips="1" connect="1" arrows="1" fold="1" page="1" pageScale="1" pageWidth="850" pageHeight="1100" background="#ffffff" math="0" shadow="0">
      <root>
        <mxCell id="0" />
        <mxCell id="1" parent="0" />
        <mxCell id="ckuZoNm9qqtLLxH1I7Xd-5" style="edgeStyle=none;curved=1;rounded=0;orthogonalLoop=1;jettySize=auto;html=1;fontSize=12;startSize=8;endSize=8;" edge="1" parent="1" source="ckuZoNm9qqtLLxH1I7Xd-4">
          <mxGeometry relative="1" as="geometry">
            <mxPoint x="270" y="220" as="targetPoint" />
          </mxGeometry>
        </mxCell>
        <mxCell id="ckuZoNm9qqtLLxH1I7Xd-4" value="Start" style="ellipse;whiteSpace=wrap;html=1;fillColor=#d5e8d4;strokeColor=#82b366;" vertex="1" parent="1">
          <mxGeometry x="70" y="70" width="400" height="80" as="geometry" />
        </mxCell>
        <mxCell id="ckuZoNm9qqtLLxH1I7Xd-7" style="edgeStyle=none;curved=1;rounded=0;orthogonalLoop=1;jettySize=auto;html=1;fontSize=12;startSize=8;endSize=8;" edge="1" parent="1" source="ckuZoNm9qqtLLxH1I7Xd-6">
          <mxGeometry relative="1" as="geometry">
            <mxPoint x="261.81818181818176" y="390" as="targetPoint" />
          </mxGeometry>
        </mxCell>
        <mxCell id="ckuZoNm9qqtLLxH1I7Xd-19" style="edgeStyle=none;curved=1;rounded=0;orthogonalLoop=1;jettySize=auto;html=1;fontSize=12;startSize=8;endSize=8;entryX=0;entryY=0.5;entryDx=0;entryDy=0;" edge="1" parent="1" source="ckuZoNm9qqtLLxH1I7Xd-6" target="ckuZoNm9qqtLLxH1I7Xd-16">
          <mxGeometry relative="1" as="geometry">
            <mxPoint x="680" y="285" as="targetPoint" />
          </mxGeometry>
        </mxCell>
        <mxCell id="ckuZoNm9qqtLLxH1I7Xd-6" value="New User?" style="rhombus;whiteSpace=wrap;html=1;fillColor=#d80073;fontColor=#ffffff;strokeColor=#A50040;" vertex="1" parent="1">
          <mxGeometry x="70" y="220" width="390" height="130" as="geometry" />
        </mxCell>
        <mxCell id="ckuZoNm9qqtLLxH1I7Xd-10" style="edgeStyle=none;curved=1;rounded=0;orthogonalLoop=1;jettySize=auto;html=1;fontSize=12;startSize=8;endSize=8;" edge="1" parent="1" source="ckuZoNm9qqtLLxH1I7Xd-9">
          <mxGeometry relative="1" as="geometry">
            <mxPoint x="260" y="590" as="targetPoint" />
          </mxGeometry>
        </mxCell>
        <mxCell id="ckuZoNm9qqtLLxH1I7Xd-9" value="Recognize&lt;div&gt;the face&lt;/div&gt;" style="shape=parallelogram;perimeter=parallelogramPerimeter;whiteSpace=wrap;html=1;fixedSize=1;fillColor=#6a00ff;fontColor=#ffffff;strokeColor=#3700CC;" vertex="1" parent="1">
          <mxGeometry x="90" y="390" width="350" height="130" as="geometry" />
        </mxCell>
        <mxCell id="ckuZoNm9qqtLLxH1I7Xd-12" style="edgeStyle=none;curved=1;rounded=0;orthogonalLoop=1;jettySize=auto;html=1;fontSize=12;startSize=8;endSize=8;" edge="1" parent="1" source="ckuZoNm9qqtLLxH1I7Xd-11" target="ckuZoNm9qqtLLxH1I7Xd-13">
          <mxGeometry relative="1" as="geometry">
            <mxPoint x="255" y="780" as="targetPoint" />
          </mxGeometry>
        </mxCell>
        <mxCell id="ckuZoNm9qqtLLxH1I7Xd-11" value="Face&lt;div&gt;Recognized&lt;/div&gt;" style="rhombus;whiteSpace=wrap;html=1;fillColor=#a20025;fontColor=#ffffff;strokeColor=#6F0000;" vertex="1" parent="1">
          <mxGeometry x="110" y="590" width="290" height="110" as="geometry" />
        </mxCell>
        <mxCell id="ckuZoNm9qqtLLxH1I7Xd-14" style="edgeStyle=none;curved=1;rounded=0;orthogonalLoop=1;jettySize=auto;html=1;fontSize=12;startSize=8;endSize=8;" edge="1" parent="1" source="ckuZoNm9qqtLLxH1I7Xd-13" target="ckuZoNm9qqtLLxH1I7Xd-15">
          <mxGeometry relative="1" as="geometry">
            <mxPoint x="260" y="970" as="targetPoint" />
          </mxGeometry>
        </mxCell>
        <mxCell id="ckuZoNm9qqtLLxH1I7Xd-13" value="Stored in csv file&lt;div&gt;with Registration&lt;/div&gt;&lt;div&gt;Number &amp;amp;Date-&lt;/div&gt;&lt;div&gt;Time of Entry&lt;/div&gt;" style="shape=parallelogram;perimeter=parallelogramPerimeter;whiteSpace=wrap;html=1;fixedSize=1;fillColor=#e3c800;fontColor=#000000;strokeColor=#B09500;" vertex="1" parent="1">
          <mxGeometry x="70" y="750" width="390" height="150" as="geometry" />
        </mxCell>
        <mxCell id="ckuZoNm9qqtLLxH1I7Xd-15" value="End" style="ellipse;whiteSpace=wrap;html=1;fillColor=#fad7ac;strokeColor=#b46504;" vertex="1" parent="1">
          <mxGeometry x="70" y="960" width="390" height="80" as="geometry" />
        </mxCell>
        <mxCell id="ckuZoNm9qqtLLxH1I7Xd-22" style="edgeStyle=none;curved=1;rounded=0;orthogonalLoop=1;jettySize=auto;html=1;entryX=0.5;entryY=0;entryDx=0;entryDy=0;fontSize=12;startSize=8;endSize=8;" edge="1" parent="1" source="ckuZoNm9qqtLLxH1I7Xd-16" target="ckuZoNm9qqtLLxH1I7Xd-17">
          <mxGeometry relative="1" as="geometry" />
        </mxCell>
        <mxCell id="ckuZoNm9qqtLLxH1I7Xd-16" value="Give your&lt;div&gt;photograph&lt;/div&gt;" style="rounded=0;whiteSpace=wrap;html=1;fillColor=#b1ddf0;strokeColor=#10739e;" vertex="1" parent="1">
          <mxGeometry x="760" y="240" width="310" height="90" as="geometry" />
        </mxCell>
        <mxCell id="ckuZoNm9qqtLLxH1I7Xd-21" value="" style="edgeStyle=none;curved=1;rounded=0;orthogonalLoop=1;jettySize=auto;html=1;fontSize=12;startSize=8;endSize=8;entryX=1;entryY=0.5;entryDx=0;entryDy=0;" edge="1" parent="1" source="ckuZoNm9qqtLLxH1I7Xd-17" target="ckuZoNm9qqtLLxH1I7Xd-9">
          <mxGeometry relative="1" as="geometry">
            <mxPoint x="640" y="455" as="targetPoint" />
          </mxGeometry>
        </mxCell>
        <mxCell id="ckuZoNm9qqtLLxH1I7Xd-17" value="stored the face&lt;div&gt;data in folder&lt;/div&gt;&lt;div&gt;on your name&lt;/div&gt;" style="rounded=0;whiteSpace=wrap;html=1;fillColor=#ffcccc;strokeColor=#36393d;" vertex="1" parent="1">
          <mxGeometry x="760" y="400" width="310" height="110" as="geometry" />
        </mxCell>
        <mxCell id="ckuZoNm9qqtLLxH1I7Xd-24" value="" style="endArrow=none;html=1;rounded=0;fontSize=12;startSize=8;endSize=8;curved=1;" edge="1" parent="1">
          <mxGeometry width="50" height="50" relative="1" as="geometry">
            <mxPoint x="1280" y="640" as="sourcePoint" />
            <mxPoint x="1273" y="120" as="targetPoint" />
            <Array as="points">
              <mxPoint x="1273" y="350" />
            </Array>
          </mxGeometry>
        </mxCell>
        <mxCell id="ckuZoNm9qqtLLxH1I7Xd-29" value="" style="endArrow=none;html=1;rounded=0;fontSize=12;startSize=8;endSize=8;curved=1;" edge="1" parent="1">
          <mxGeometry width="50" height="50" relative="1" as="geometry">
            <mxPoint x="910" y="120" as="sourcePoint" />
            <mxPoint x="1270" y="120" as="targetPoint" />
          </mxGeometry>
        </mxCell>
        <mxCell id="ckuZoNm9qqtLLxH1I7Xd-31" value="" style="endArrow=none;html=1;rounded=0;fontSize=12;startSize=8;endSize=8;curved=1;exitX=0.5;exitY=0;exitDx=0;exitDy=0;" edge="1" parent="1" source="ckuZoNm9qqtLLxH1I7Xd-16">
          <mxGeometry width="50" height="50" relative="1" as="geometry">
            <mxPoint x="1070" y="170" as="sourcePoint" />
            <mxPoint x="915" y="120" as="targetPoint" />
          </mxGeometry>
        </mxCell>
        <mxCell id="ckuZoNm9qqtLLxH1I7Xd-36" value="" style="endArrow=none;html=1;rounded=0;fontSize=12;startSize=8;endSize=8;curved=1;exitX=1;exitY=0.5;exitDx=0;exitDy=0;" edge="1" parent="1" source="ckuZoNm9qqtLLxH1I7Xd-11">
          <mxGeometry width="50" height="50" relative="1" as="geometry">
            <mxPoint x="720" y="360" as="sourcePoint" />
            <mxPoint x="1280" y="640" as="targetPoint" />
          </mxGeometry>
        </mxCell>
      </root>
    </mxGraphModel>
  </diagram>
</mxfile>
